# xmcd
#
# Track frame offsets:
#	150
#	24253
#	38936
#	57848
#	84756
#	109105
#	125561
#	145776
#
# Disc length: 2219 seconds
#
# Revision: 0
# Processed by: cddbd v1.5.2PL0 Copyright (c) Steve Scherf et al.
# Submitted via: EasyCDDAExtractor 10.5.1.1
#
DISCID=5e08a908
DTITLE=Rene and Angela - Wall To Wall
DYEAR=1981
DGENRE=Soul
TTITLE0=Wall To Wall
TTITLE1=Just Friends
TTITLE2=Secret Rensezvous
TTITLE3=Wanna Be Close To You
TTITLE4=I Love You More
TTITLE5=Love's Alright
TTITLE6=Imaginary Playmates
TTITLE7=Come My Way
EXTD=
EXTT0=
EXTT1=
EXTT2=
EXTT3=
EXTT4=
EXTT5=
EXTT6=
EXTT7=
PLAYORDER=
